HIERARCHY
ROOT joint_Root
{
	OFFSET 0.0 0.0 0.0
	CHANNELS 6 Xposition Yposition Zposition Zrotation Xrotation Yrotation 
	JOINT Hips
	{
		OFFSET -17.1583 93.1646 452.98
		CHANNELS 6 Xposition Yposition Zposition Zrotation Xrotation Yrotation 
		JOINT Spine
		{
			OFFSET 15.7357 0.0 0.0
			CHANNELS 6 Xposition Yposition Zposition Zrotation Xrotation Yrotation 
			JOINT Chest
			{
				OFFSET 8.98455 -0.406207 0.0
				CHANNELS 6 Xposition Yposition Zposition Zrotation Xrotation Yrotation 
				JOINT Neck
				{
					OFFSET 16.3773 0.0 0.0
					CHANNELS 6 Xposition Yposition Zposition Zrotation Xrotation Yrotation 
					JOINT Head
					{
						OFFSET 6.45672 0.0 0.0
						CHANNELS 6 Xposition Yposition Zposition Zrotation Xrotation Yrotation 
						End Site
						{
							OFFSET 0.0 0.0 0.0
						}
					}
				}
				JOINT Shoulder_L
				{
					OFFSET 12.9942 -0.242716 4.98039
					CHANNELS 6 Xposition Yposition Zposition Zrotation Xrotation Yrotation 
					JOINT UpperArm_L
					{
						OFFSET 5.34809 0.0 0.0
						CHANNELS 6 Xposition Yposition Zposition Zrotation Xrotation Yrotation 
						JOINT LowerArm_L
						{
							OFFSET 24.3286 1.87007e-05 0.0
							CHANNELS 6 Xposition Yposition Zposition Zrotation Xrotation Yrotation 
							JOINT Hand_L
							{
								OFFSET 22.2916 0.0 0.0
								CHANNELS 6 Xposition Yposition Zposition Zrotation Xrotation Yrotation 
								End Site
								{
									OFFSET 0.0 0.0 0.0
								}
							}
						}
					}
				}
				JOINT Shoulder_R
				{
					OFFSET 12.9945 -0.242716 -4.98039
					CHANNELS 6 Xposition Yposition Zposition Zrotation Xrotation Yrotation 
					JOINT UpperArm_R
					{
						OFFSET -5.34813 0.0 0.0
						CHANNELS 6 Xposition Yposition Zposition Zrotation Xrotation Yrotation 
						JOINT LowerArm_R
						{
							OFFSET -24.3289 0.000322201 0.0
							CHANNELS 6 Xposition Yposition Zposition Zrotation Xrotation Yrotation 
							JOINT Hand_R
							{
								OFFSET -22.2915 -0.000108084 0.0
								CHANNELS 6 Xposition Yposition Zposition Zrotation Xrotation Yrotation 
								End Site
								{
									OFFSET 0.0 0.0 0.0
								}
							}
						}
					}
				}
			}
		}
		JOINT UpperLeg_L
		{
			OFFSET -2.19248 -6.46944 0.0
			CHANNELS 6 Xposition Yposition Zposition Zrotation Xrotation Yrotation 
			JOINT LowerLeg_L
			{
				OFFSET 39.0811 0.0 -1.23785e-05
				CHANNELS 6 Xposition Yposition Zposition Zrotation Xrotation Yrotation 
				JOINT Foot_L
				{
					OFFSET 40.9854 0.0 -1.26872e-05
					CHANNELS 6 Xposition Yposition Zposition Zrotation Xrotation Yrotation 
					JOINT Toes_L
					{
						OFFSET 11.7543 0.0 0.0
						CHANNELS 6 Xposition Yposition Zposition Zrotation Xrotation Yrotation 
						End Site
						{
							OFFSET 0.0 0.0 0.0
						}
					}
				}
			}
		}
		JOINT UpperLeg_R
		{
			OFFSET -2.19251 6.46944 0.0
			CHANNELS 6 Xposition Yposition Zposition Zrotation Xrotation Yrotation 
			JOINT LowerLeg_R
			{
				OFFSET -39.0811 -0.00228153 -0.0401928
				CHANNELS 6 Xposition Yposition Zposition Zrotation Xrotation Yrotation 
				JOINT Foot_R
				{
					OFFSET -40.9854 0.0 0.0
					CHANNELS 6 Xposition Yposition Zposition Zrotation Xrotation Yrotation 
					JOINT Toes_R
					{
						OFFSET -11.7543 0.0 0.0
						CHANNELS 6 Xposition Yposition Zposition Zrotation Xrotation Yrotation 
						End Site
						{
							OFFSET 0.0 0.0 0.0
						}
					}
				}
			}
		}
	}
}
MOTION
Frames:	4
Frame Time:	0.0333333
0.000000 0.000000 0.000000 0.000000 0.000000 -0.000000 1.102290 83.657300 467.076000 -85.554500 2.876000 158.984000 15.735700 0.000005 -0.000001 102.929000 81.859000 -99.270000 8.984550 -0.406207 -0.000000 8.009260 3.635120 7.057300 16.377300 -0.000001 -0.000001 -12.266000 1.242020 -1.804960 6.456720 -0.000001 -0.000000 -8.728410 0.736351 -10.794400 12.994200 -0.242716 4.980390 -92.633000 7.624120 -70.882500 5.348090 -0.000007 -0.000001 -62.014700 0.607892 19.254100 24.328600 0.000019 0.000005 5.155210 40.208600 -7.954740 22.291600 -0.000001 0.000005 -5.068330 4.940900 8.497360 12.994500 -0.242716 -4.980390 89.676900 1.244340 -75.441700 -5.348130 -0.000001 -0.000004 -64.549200 13.842400 -16.429500 -24.328900 0.000322 -0.000009 -0.633531 -0.258793 -67.790900 -22.291500 -0.000108 -0.000004 12.544800 5.426630 -3.811630 -2.192480 -6.469440 -0.000000 -174.069000 -5.391710 -40.904800 39.081100 -0.000007 -0.000012 0.452652 -0.055522 83.006200 40.985400 -0.000006 -0.000013 -7.539830 5.718930 -48.282300 11.754300 -0.000000 0.000003 0.001545 0.032219 -15.269800 -2.192510 6.469440 -0.000001 -175.433000 -1.172540 153.981000 -39.081100 -0.002282 -0.040193 0.045886 -0.035806 49.977300 -40.985400 0.000008 0.000006 -9.713600 2.066800 -88.648100 -11.754300 -0.000006 -0.000006 0.000386 0.006778 -16.298600
0.000000 0.000000 0.000000 0.000000 0.000000 -0.000000 0.646745 86.154300 460.385000 -88.933300 2.027330 158.486000 15.735700 0.000005 -0.000001 105.685000 82.202000 -103.402000 8.984550 -0.406207 -0.000000 7.184170 4.189610 4.298850 16.377300 -0.000001 -0.000001 -11.847000 0.440661 -1.815560 6.456720 -0.000001 -0.000000 -8.123220 -1.162700 -8.852240 12.994200 -0.242716 4.980390 -92.187300 6.324930 -70.879600 5.348090 -0.000007 -0.000001 -55.489900 -4.711700 20.742600 24.328600 0.000019 0.000005 3.495940 35.649700 -5.982490 22.291600 -0.000001 0.000005 0.172108 4.763430 11.950300 12.994500 -0.242716 -4.980390 89.748100 1.004930 -75.928000 -5.348130 -0.000001 -0.000004 -64.588500 12.049300 -14.964600 -24.328900 0.000322 -0.000009 -0.440179 -0.088230 -78.496200 -22.291500 -0.000108 -0.000004 14.015700 5.432220 -4.015660 -2.192480 -6.469440 -0.000000 -177.390000 -2.921200 -46.974800 39.081100 -0.000007 -0.000012 0.333629 -0.061066 79.626500 40.985400 -0.000006 -0.000013 -7.258060 3.471270 -56.714700 11.754300 -0.000000 0.000003 0.001619 0.034272 -15.186500 -2.192510 6.469440 -0.000001 -179.077000 2.887060 162.188000 -39.081100 -0.002282 -0.040193 0.054878 -0.063008 39.314500 -40.985400 0.000008 0.000006 -9.402350 3.142210 -80.506100 -11.754300 -0.000006 -0.000006 -0.010958 -0.110660 -21.082900
0.000000 0.000000 0.000000 0.000000 0.000000 -0.000000 0.122517 88.845600 453.482000 -92.383400 1.102710 156.792000 15.735700 0.000005 -0.000001 109.264000 83.021200 -108.480000 8.984550 -0.406207 -0.000000 5.392680 4.578260 1.351760 16.377300 -0.000001 -0.000001 -11.653400 -0.076825 -2.157850 6.456720 -0.000001 -0.000000 -6.589680 -3.415560 -5.695080 12.994200 -0.242716 4.980390 -91.726200 5.130090 -71.375100 5.348090 -0.000007 -0.000001 -50.565600 -7.718260 20.664400 24.328600 0.000019 0.000005 2.101560 32.827000 -3.871950 22.291600 -0.000001 0.000005 7.266650 4.484430 16.717500 12.994500 -0.242716 -4.980390 89.764000 1.021140 -76.985000 -5.348130 -0.000001 -0.000004 -64.668500 10.216300 -11.516800 -24.328900 0.000322 -0.000009 -2.887510 -0.162854 -86.694700 -22.291500 -0.000108 -0.000004 14.782200 5.476420 -5.599700 -2.192480 -6.469440 -0.000000 179.408000 -0.070547 -51.605900 39.081100 -0.000007 -0.000012 0.204606 -0.069911 71.133800 40.985400 -0.000006 -0.000013 -6.532150 1.654140 -61.879300 11.754300 -0.000000 0.000003 0.001631 0.034617 -15.172500 -2.192510 6.469440 -0.000001 177.563000 6.616330 168.271000 -39.081100 -0.002282 -0.040193 0.054642 -0.093024 28.893200 -40.985400 0.000008 0.000006 -7.330370 2.165850 -67.271600 -11.754300 -0.000006 -0.000006 -0.051526 -0.303161 -29.064700
0.000000 0.000000 0.000000 0.000000 0.000000 -0.000000 -0.340738 91.191100 446.628000 -94.999100 0.668560 154.518000 15.735700 0.000005 -0.000001 115.608000 84.004900 -116.204000 8.984550 -0.406207 -0.000000 3.084780 5.201330 -1.330320 16.377300 -0.000001 -0.000001 -11.325800 -0.588838 -2.404940 6.456720 -0.000001 -0.000000 -4.716320 -5.260270 -2.375600 12.994200 -0.242716 4.980390 -91.436900 4.363820 -71.754100 5.348090 -0.000007 -0.000001 -47.811800 -8.941570 19.238900 24.328600 0.000019 0.000005 1.823070 31.482800 -3.487950 22.291600 -0.000001 0.000005 18.213000 3.795340 26.750600 12.994500 -0.242716 -4.980390 89.834400 0.776115 -77.957900 -5.348130 -0.000001 -0.000004 -65.588200 9.747140 -7.395760 -24.328900 0.000322 -0.000009 -8.687110 0.084873 -90.543800 -22.291500 -0.000108 -0.000004 16.783900 5.598240 -11.127300 -2.192480 -6.469440 -0.000000 177.319000 2.008180 -54.282400 39.081100 -0.000007 -0.000012 0.120442 -0.073689 58.539000 40.985400 -0.000006 -0.000013 -6.019110 2.595840 -65.074000 11.754300 -0.000000 0.000003 0.001698 0.036590 -15.092500 -2.192510 6.469440 -0.000001 175.549000 6.618070 172.105000 -39.081100 -0.002282 -0.040193 0.035800 -0.088144 20.227700 -40.985400 0.000008 0.000006 -1.396380 -0.767393 -51.411400 -11.754300 -0.000006 -0.000006 -0.094757 -0.431359 -34.551500
